<svg width="47" height="47" viewBox="0 0 47 47" fill="none" xmlns="http://www.w3.org/2000/svg">
<circle cx="23.5" cy="23.5" r="23.5" fill="white"/>
<path d="M34.8456 15.3246L37 13.2636V12.8125H29.5367L24.2177 26.0515L18.1664 12.8125H10.3409V13.2636L12.8575 16.2932C13.1027 16.5171 13.231 16.8445 13.1984 17.1741V29.08C13.276 29.5086 13.1365 29.9496 12.835 30.2612L10 33.697V34.1425H18.0381V33.6914L15.2031 30.2612C14.896 29.9485 14.7509 29.5154 14.8127 29.08V18.7818L21.8687 34.1481H22.6889L28.756 18.7818V31.0229C28.756 31.3458 28.756 31.4121 28.5445 31.6236L26.362 33.7352V34.1875H36.9505V33.7364L34.8467 31.6765C34.6622 31.537 34.5666 31.303 34.606 31.0757V15.9254C34.5666 15.697 34.6611 15.463 34.8456 15.3246Z" fill="#D9A337"/>
</svg>
