<svg width="48" height="48" viewBox="0 0 48 48" fill="none" xmlns="http://www.w3.org/2000/svg">
<g clip-path="url(#clip0)">
<path fill-rule="evenodd" clip-rule="evenodd" d="M27.2774 38.2817C27.273 38.2697 27.2705 38.2577 27.2662 38.2457L25.2828 32.0159C24.0004 31.8457 22.7096 31.7466 21.4163 31.7192V41.1004C23.5878 41.0116 25.7313 40.5774 27.7662 39.8142L27.2774 38.2817Z" fill="white"/>
<path fill-rule="evenodd" clip-rule="evenodd" d="M30.7468 9.67334C27.7141 10.5613 24.5759 11.0384 21.4163 11.0916V19.683H32.5511C32.4925 16.2711 31.8832 12.891 30.7468 9.67334Z" fill="white"/>
<path fill-rule="evenodd" clip-rule="evenodd" d="M19.7013 41.0581V31.7036C16.7665 31.7561 13.8512 32.1918 11.0292 32.9993C13.1259 37.6907 16.303 40.6406 19.7013 41.0581Z" fill="white"/>
<path fill-rule="evenodd" clip-rule="evenodd" d="M21.4163 0.0185547V9.3774C24.3565 9.32479 27.277 8.88772 30.1037 8.07738C28.0715 3.51383 24.9535 0.449051 21.4163 0.0185547Z" fill="white"/>
<path fill-rule="evenodd" clip-rule="evenodd" d="M25.5718 23.2081L32.2261 25.3253C32.4089 24.0235 32.5156 22.7121 32.5459 21.3979H21.4163V29.9885C22.5251 30.0133 23.6261 30.0802 24.7057 30.2011L23.2231 25.5448C23.0087 24.8793 23.1858 24.1498 23.6814 23.6567C24.177 23.1636 24.9075 22.9902 25.5718 23.2081Z" fill="white"/>
<path fill-rule="evenodd" clip-rule="evenodd" d="M47.8645 32.1024L25.0427 24.8401C25.0251 24.8326 25.0062 24.8286 24.987 24.8281C24.9504 24.829 24.9157 24.8447 24.891 24.8718C24.8501 24.9072 24.8356 24.9645 24.855 25.015L32.1232 47.848C32.1423 47.9321 32.2209 47.989 32.3068 47.9809C32.3888 47.987 32.4636 47.9341 32.4852 47.8548L36.3003 37.4267C36.4935 36.8998 36.9087 36.4845 37.4356 36.2913L47.8724 32.466C47.9542 32.4444 48.008 32.3666 47.9993 32.2825C48.0035 32.1979 47.9469 32.1222 47.8645 32.1024Z" fill="white"/>
<path fill-rule="evenodd" clip-rule="evenodd" d="M19.7013 11.0916C16.5417 11.0382 13.4035 10.5612 10.3708 9.67334C9.23441 12.891 8.62524 16.2711 8.56653 19.6831H19.7013V11.0916Z" fill="white"/>
<path fill-rule="evenodd" clip-rule="evenodd" d="M8.77407 9.13582C7.40286 8.64605 6.08191 8.02553 4.82954 7.28271C1.88481 10.7637 0.185236 15.1275 0 19.6832H6.8524C6.91318 16.0861 7.56239 12.5232 8.77407 9.13582Z" fill="white"/>
<path fill-rule="evenodd" clip-rule="evenodd" d="M9.39655 33.5396C8.22126 33.957 7.08481 34.4763 5.99994 35.0917C8.20063 37.285 10.868 38.9531 13.8033 39.9718C11.9055 38.1553 10.4051 35.9652 9.39655 33.5396Z" fill="white"/>
<path fill-rule="evenodd" clip-rule="evenodd" d="M19.7013 0.0185547C16.1641 0.447269 13.0469 3.51374 11.0139 8.07916C13.8405 8.88951 16.7612 9.32601 19.7013 9.3774V0.0185547Z" fill="white"/>
<path fill-rule="evenodd" clip-rule="evenodd" d="M19.7013 21.3979H8.57251C8.62982 24.8093 9.24292 28.1885 10.3878 31.4025C13.4154 30.518 16.5476 30.0428 19.7013 29.9894V21.3979Z" fill="white"/>
<path fill-rule="evenodd" clip-rule="evenodd" d="M41.1176 19.6831C40.9309 15.1283 39.2305 10.7658 36.2855 7.28613C35.0332 8.02904 33.7123 8.64965 32.341 9.13924C33.5531 12.5254 34.2032 16.0871 34.2653 19.6832H41.1176V19.6831Z" fill="white"/>
<path fill-rule="evenodd" clip-rule="evenodd" d="M35.1055 5.99631C32.893 3.78287 30.2057 2.10196 27.2473 1.08105C29.1622 2.9079 30.6801 5.10981 31.7064 7.54929C32.8827 7.13202 34.0201 6.61233 35.1055 5.99631Z" fill="white"/>
<path fill-rule="evenodd" clip-rule="evenodd" d="M13.8702 1.08105C10.9118 2.10196 8.22453 3.78287 6.01202 5.99631C7.10018 6.61242 8.2401 7.13211 9.41895 7.54929C10.4429 5.11047 11.958 2.90865 13.8702 1.08105Z" fill="white"/>
<path fill-rule="evenodd" clip-rule="evenodd" d="M41.1184 21.3979H34.2583C34.2252 22.8891 34.0983 24.3766 33.8785 25.8519L39.8322 27.747C40.5964 25.7127 41.0306 23.5693 41.1184 21.3979Z" fill="white"/>
<path fill-rule="evenodd" clip-rule="evenodd" d="M8.76121 31.9453C7.5592 28.5559 6.91627 24.9937 6.85756 21.3979H0.0180054C0.20174 25.9502 1.89615 30.3117 4.83375 33.7941C6.0806 33.0532 7.39572 32.4341 8.76121 31.9453Z" fill="white"/>
</g>
<defs>
<clipPath id="clip0">
<rect width="48" height="48" fill="white"/>
</clipPath>
</defs>
</svg>
